<?xml version="1.0" standalone="no"?>
<!DOCTYPE svg PUBLIC "-//W3C//DTD SVG 20010904//EN"
 "http://www.w3.org/TR/2001/REC-SVG-20010904/DTD/svg10.dtd">
<svg version="1.0" xmlns="http://www.w3.org/2000/svg"
 width="135.000000pt" height="135.000000pt" viewBox="0 0 135.000000 135.000000"
 preserveAspectRatio="xMidYMid meet">
<metadata>
Created by potrace 1.14, written by Peter Selinger 2001-2017
</metadata>
<g transform="translate(0.000000,135.000000) scale(0.100000,-0.100000)"
fill="#000000" stroke="none">
<path d="M599 1327 c-45 -30 -67 -90 -53 -144 6 -22 15 -37 23 -35 7 1 10 -2
7 -7 -8 -12 18 -33 29 -23 5 4 5 2 1 -5 -9 -17 25 -33 72 -33 45 0 108 37 106
63 -1 9 2 15 6 12 22 -13 27 85 7 125 -34 67 -134 90 -198 47z"/>
<path d="M424 1069 c-33 -35 -113 -79 -144 -79 -11 0 -20 -1 -20 -3 0 -2 11
-31 25 -65 37 -91 34 -161 -10 -253 -28 -58 -35 -86 -35 -132 0 -133 98 -325
215 -420 62 -51 186 -117 218 -117 45 0 163 75 243 155 66 65 89 96 122 165
75 160 79 238 17 364 -34 69 -37 82 -32 131 3 30 17 80 31 111 31 67 31 64 7
64 -31 0 -85 27 -139 70 l-52 40 -60 -20 c-79 -27 -204 -27 -280 0 -72 25 -71
25 -106 -11z"/>
</g>
</svg>
